<?xml version="1.0" standalone="no"?><!DOCTYPE svg PUBLIC "-//W3C//DTD SVG 1.1//EN" "http://www.w3.org/Graphics/SVG/1.1/DTD/svg11.dtd"><svg t="1515504359299" class="icon" style="" viewBox="0 0 1024 1024" version="1.1" xmlns="http://www.w3.org/2000/svg" p-id="9440" xmlns:xlink="http://www.w3.org/1999/xlink" width="128" height="128"><defs><style type="text/css"></style></defs><path d="M886.4 985.6h-124.8c-9.6 0-19.2-9.6-19.2-19.2s9.6-19.2 19.2-19.2h124.8c9.6 0 19.2 9.6 19.2 19.2s-6.4 19.2-19.2 19.2z m-249.6 0H512c-9.6 0-19.2-9.6-19.2-19.2s9.6-19.2 19.2-19.2h124.8c9.6 0 19.2 9.6 19.2 19.2s-6.4 19.2-19.2 19.2z m-249.6 0H262.4c-9.6 0-19.2-9.6-19.2-19.2s9.6-19.2 19.2-19.2h124.8c9.6 0 19.2 9.6 19.2 19.2s-6.4 19.2-19.2 19.2z m-249.6 0c-54.4 0-99.2-44.8-99.2-96 0-9.6 9.6-19.2 19.2-19.2s19.2 9.6 19.2 19.2c0 32 25.6 57.6 57.6 57.6 9.6 0 19.2 9.6 19.2 19.2s-3.2 19.2-16 19.2z m828.8-83.2c-9.6 0-19.2-9.6-19.2-19.2v-124.8c0-9.6 9.6-19.2 19.2-19.2s19.2 9.6 19.2 19.2v124.8c0 12.8-9.6 19.2-19.2 19.2zM57.6 780.8c-9.6 0-19.2-9.6-19.2-19.2v-124.8c0-9.6 9.6-19.2 19.2-19.2s19.2 9.6 19.2 19.2v124.8c0 12.8-6.4 19.2-19.2 19.2z m908.8-128c-9.6 0-19.2-9.6-19.2-19.2V512c0-9.6 9.6-19.2 19.2-19.2s19.2 9.6 19.2 19.2v124.8c0 9.6-9.6 16-19.2 16zM57.6 531.2c-9.6 0-19.2-9.6-19.2-19.2v-124.8c0-9.6 9.6-19.2 19.2-19.2s19.2 9.6 19.2 19.2V512c0 12.8-6.4 19.2-19.2 19.2z m908.8-124.8c-9.6 0-19.2-9.6-19.2-19.2V262.4c0-9.6 9.6-19.2 19.2-19.2s19.2 9.6 19.2 19.2v124.8c0 9.6-9.6 19.2-19.2 19.2zM57.6 281.6c-9.6 0-19.2-9.6-19.2-19.2V140.8c0-9.6 9.6-19.2 19.2-19.2s19.2 6.4 19.2 19.2v124.8c0 9.6-6.4 16-19.2 16z m908.8-124.8c-9.6 0-19.2-9.6-19.2-19.2 0-32-25.6-57.6-57.6-57.6-9.6 0-19.2-9.6-19.2-19.2s6.4-19.2 19.2-19.2h3.2c54.4 0 96 44.8 96 96-3.2 9.6-12.8 19.2-22.4 19.2z m-208-80h-124.8c-9.6 0-19.2-9.6-19.2-19.2s9.6-19.2 19.2-19.2h124.8c9.6 0 19.2 9.6 19.2 19.2s-6.4 19.2-19.2 19.2z m-246.4 0h-124.8c-9.6 0-19.2-9.6-19.2-19.2s9.6-19.2 19.2-19.2H512c9.6 0 19.2 9.6 19.2 19.2s-9.6 19.2-19.2 19.2z m-249.6 0H137.6c-9.6 0-19.2-6.4-19.2-19.2 0-9.6 9.6-19.2 19.2-19.2h124.8c9.6 0 19.2 9.6 19.2 19.2s-9.6 19.2-19.2 19.2zM729.6 531.2H275.2c-9.6 0-19.2-9.6-19.2-19.2s9.6-19.2 19.2-19.2h454.4c9.6 0 19.2 9.6 19.2 19.2s-9.6 19.2-19.2 19.2z" p-id="9441" fill="#e5e5e5"></path><path d="M505.6 755.2c-9.6 0-19.2-9.6-19.2-19.2V288c0-9.6 9.6-19.2 19.2-19.2s19.2 9.6 19.2 19.2v448c0 9.6-9.6 19.2-19.2 19.2z" p-id="9442" fill="#e5e5e5"></path></svg>